<?xml version="1.0" encoding="UTF-8" standalone="no"?>
<!DOCTYPE svg PUBLIC "-//W3C//DTD SVG 1.1//EN"
 "http://www.w3.org/Graphics/SVG/1.1/DTD/svg11.dtd">
<!-- Generated by graphviz version 12.2.1 (20241206.2353)
 -->
<!-- Title: Architecture Pages: 1 -->
<svg width="724pt" height="551pt"
 viewBox="0.00 0.00 724.14 551.00" xmlns="http://www.w3.org/2000/svg" xmlns:xlink="http://www.w3.org/1999/xlink">
<g id="graph0" class="graph" transform="scale(1 1) rotate(0) translate(4 547)">
<title>Architecture</title>
<polygon fill="white" stroke="none" points="-4,4 -4,-547 720.14,-547 720.14,4 -4,4"/>
<g id="clust1" class="cluster">
<title>cluster_cmd</title>
<polygon fill="none" stroke="grey" stroke-dasharray="5,2" points="8,-106 8,-185 157,-185 157,-106 8,-106"/>
<text text-anchor="middle" x="82.5" y="-167.7" font-family="Times,serif" font-size="14.00">cmd</text>
</g>
<g id="clust2" class="cluster">
<title>cluster_internal</title>
<polygon fill="none" stroke="grey" stroke-dasharray="5,2" points="238,-98 238,-535 708.14,-535 708.14,-98 238,-98"/>
<text text-anchor="middle" x="473.07" y="-517.7" font-family="Times,serif" font-size="14.00">internal</text>
</g>
<g id="clust3" class="cluster">
<title>cluster_server</title>
<polygon fill="none" stroke="black" points="266.25,-423 266.25,-502 646.32,-502 646.32,-423 266.25,-423"/>
<text text-anchor="middle" x="456.29" y="-484.7" font-family="Times,serif" font-size="14.00">server</text>
</g>
<g id="clust4" class="cluster">
<title>cluster_todo</title>
<polygon fill="none" stroke="black" points="246,-249 246,-415 700.14,-415 700.14,-249 246,-249"/>
<text text-anchor="middle" x="473.07" y="-397.7" font-family="Times,serif" font-size="14.00">todo (Domain)</text>
</g>
<g id="clust5" class="cluster">
<title>cluster_adapters</title>
<polygon fill="none" stroke="black" points="256.5,-106 256.5,-241 410,-241 410,-106 256.5,-106"/>
<text text-anchor="middle" x="333.25" y="-223.7" font-family="Times,serif" font-size="14.00">Adapters</text>
</g>
<!-- Main -->
<g id="node1" class="node">
<title>Main</title>
<polygon fill="#e1f5fe" stroke="black" points="149,-152 16,-152 16,-114 149,-114 149,-152"/>
<text text-anchor="middle" x="82.5" y="-134.7" font-family="Helvetica,sans-Serif" font-size="14.00">main.go</text>
<text text-anchor="middle" x="82.5" y="-119.7" font-family="Helvetica,sans-Serif" font-size="14.00">(Composition Root)</text>
</g>
<!-- HTTP_Server -->
<g id="node2" class="node">
<title>HTTP_Server</title>
<polygon fill="#fff9c4" stroke="black" points="392.25,-469 274.25,-469 274.25,-431 392.25,-431 392.25,-469"/>
<text text-anchor="middle" x="333.25" y="-451.7" font-family="Helvetica,sans-Serif" font-size="14.00">HTTP Server</text>
<text text-anchor="middle" x="333.25" y="-436.7" font-family="Helvetica,sans-Serif" font-size="14.00">(Driving Adapter)</text>
</g>
<!-- Main&#45;&gt;HTTP_Server -->
<g id="edge5" class="edge">
<title>Main&#45;&gt;HTTP_Server</title>
<path fill="none" stroke="black" d="M88.47,-152.18C102.68,-203.31 148.4,-344.04 238,-419 245.49,-425.26 254.28,-430.27 263.43,-434.28"/>
<polygon fill="black" stroke="black" points="261.87,-437.42 272.46,-437.83 264.43,-430.91 261.87,-437.42"/>
<text text-anchor="middle" x="198.5" y="-409.16" font-family="Helvetica,sans-Serif" font-size="10.00">injects service</text>
</g>
<!-- Service_Impl -->
<g id="node5" class="node">
<title>Service_Impl</title>
<polygon fill="#c8e6c9" stroke="black" points="412.5,-302 254,-302 254,-266 412.5,-266 412.5,-302"/>
<text text-anchor="middle" x="333.25" y="-278.2" font-family="Helvetica,sans-Serif" font-size="14.00">Service Implementation</text>
</g>
<!-- Main&#45;&gt;Service_Impl -->
<g id="edge4" class="edge">
<title>Main&#45;&gt;Service_Impl</title>
<path fill="none" stroke="black" d="M106.68,-152.49C135.92,-176.43 188.41,-217.27 238,-245 248.53,-250.89 260.14,-256.41 271.49,-261.33"/>
<polygon fill="black" stroke="black" points="269.85,-264.44 280.42,-265.09 272.57,-257.99 269.85,-264.44"/>
<text text-anchor="middle" x="198.5" y="-241.65" font-family="Helvetica,sans-Serif" font-size="10.00">injects repo</text>
</g>
<!-- Postgres_Repo -->
<g id="node7" class="node">
<title>Postgres_Repo</title>
<polygon fill="#ffe0b2" stroke="black" points="402,-152 264.5,-152 264.5,-114 402,-114 402,-152"/>
<text text-anchor="middle" x="333.25" y="-134.7" font-family="Helvetica,sans-Serif" font-size="14.00">Postgres Repository</text>
<text text-anchor="middle" x="333.25" y="-119.7" font-family="Helvetica,sans-Serif" font-size="14.00">(Driven Adapter)</text>
</g>
<!-- Main&#45;&gt;Postgres_Repo -->
<g id="edge3" class="edge">
<title>Main&#45;&gt;Postgres_Repo</title>
<path fill="none" stroke="black" d="M149.18,-133C180.99,-133 219.46,-133 252.9,-133"/>
<polygon fill="black" stroke="black" points="252.51,-136.5 262.51,-133 252.51,-129.5 252.51,-136.5"/>
<text text-anchor="middle" x="198.5" y="-134.75" font-family="Helvetica,sans-Serif" font-size="10.00">constructs</text>
</g>
<!-- Config -->
<g id="node9" class="node">
<title>Config</title>
<polygon fill="white" stroke="black" points="360.75,-90 305.75,-90 305.75,-54 360.75,-54 360.75,-90"/>
<text text-anchor="middle" x="333.25" y="-66.2" font-family="Helvetica,sans-Serif" font-size="14.00">Config</text>
</g>
<!-- Main&#45;&gt;Config -->
<g id="edge1" class="edge">
<title>Main&#45;&gt;Config</title>
<path fill="none" stroke="black" d="M149.18,-116.89C195.56,-105.52 256.06,-90.68 294.55,-81.25"/>
<polygon fill="black" stroke="black" points="294.92,-84.76 303.8,-78.98 293.25,-77.96 294.92,-84.76"/>
<text text-anchor="middle" x="198.5" y="-113.28" font-family="Helvetica,sans-Serif" font-size="10.00">loads</text>
</g>
<!-- Logger -->
<g id="node10" class="node">
<title>Logger</title>
<polygon fill="white" stroke="black" points="362.25,-36 304.25,-36 304.25,0 362.25,0 362.25,-36"/>
<text text-anchor="middle" x="333.25" y="-12.2" font-family="Helvetica,sans-Serif" font-size="14.00">Logger</text>
</g>
<!-- Main&#45;&gt;Logger -->
<g id="edge2" class="edge">
<title>Main&#45;&gt;Logger</title>
<path fill="none" stroke="black" d="M112.26,-113.61C142.46,-93.99 191.88,-63.92 238,-45 255.7,-37.74 276.02,-31.65 293.25,-27.1"/>
<polygon fill="black" stroke="black" points="293.78,-30.58 302.61,-24.72 292.05,-23.8 293.78,-30.58"/>
<text text-anchor="middle" x="198.5" y="-81.33" font-family="Helvetica,sans-Serif" font-size="10.00">initializes</text>
</g>
<!-- Middleware -->
<g id="node3" class="node">
<title>Middleware</title>
<polygon fill="#fff9c4" stroke="black" points="638.32,-468 552.57,-468 552.57,-432 638.32,-432 638.32,-468"/>
<text text-anchor="middle" x="595.45" y="-444.2" font-family="Helvetica,sans-Serif" font-size="14.00">Middleware</text>
</g>
<!-- HTTP_Server&#45;&gt;Middleware -->
<g id="edge6" class="edge">
<title>HTTP_Server&#45;&gt;Middleware</title>
<path fill="none" stroke="black" d="M392.64,-450C437.11,-450 497.84,-450 541.03,-450"/>
<polygon fill="black" stroke="black" points="540.92,-453.5 550.92,-450 540.92,-446.5 540.92,-453.5"/>
<text text-anchor="middle" x="455.62" y="-451.75" font-family="Helvetica,sans-Serif" font-size="10.00">uses</text>
</g>
<!-- Service_Interface -->
<g id="node4" class="node">
<title>Service_Interface</title>
<ellipse fill="none" stroke="black" stroke-dasharray="5,2" cx="595.45" cy="-356" rx="82.91" ry="26.87"/>
<text text-anchor="middle" x="595.45" y="-357.7" font-family="Helvetica,sans-Serif" font-size="14.00">Service Interface</text>
<text text-anchor="middle" x="595.45" y="-342.7" font-family="Helvetica,sans-Serif" font-size="14.00">(Port)</text>
</g>
<!-- HTTP_Server&#45;&gt;Service_Interface -->
<g id="edge7" class="edge">
<title>HTTP_Server&#45;&gt;Service_Interface</title>
<path fill="none" stroke="black" d="M388.16,-430.52C428.92,-415.8 485.08,-395.51 528.51,-379.82"/>
<polygon fill="black" stroke="black" points="529.62,-383.14 537.83,-376.45 527.24,-376.56 529.62,-383.14"/>
<text text-anchor="middle" x="455.62" y="-415.93" font-family="Helvetica,sans-Serif" font-size="10.00">calls</text>
</g>
<!-- Service_Impl&#45;&gt;Service_Interface -->
<g id="edge8" class="edge">
<title>Service_Impl&#45;&gt;Service_Interface</title>
<path fill="none" stroke="black" stroke-dasharray="5,2" d="M400.92,-302.45C441.12,-313.57 492.02,-327.66 531.53,-338.59"/>
<text text-anchor="middle" x="455.62" y="-326.06" font-family="Helvetica,sans-Serif" font-size="10.00">implements</text>
</g>
<!-- Repo_Interface -->
<g id="node6" class="node">
<title>Repo_Interface</title>
<ellipse fill="none" stroke="black" stroke-dasharray="5,2" cx="595.45" cy="-284" rx="96.7" ry="26.87"/>
<text text-anchor="middle" x="595.45" y="-285.7" font-family="Helvetica,sans-Serif" font-size="14.00">Repository Interface</text>
<text text-anchor="middle" x="595.45" y="-270.7" font-family="Helvetica,sans-Serif" font-size="14.00">(Port)</text>
</g>
<!-- Service_Impl&#45;&gt;Repo_Interface -->
<g id="edge9" class="edge">
<title>Service_Impl&#45;&gt;Repo_Interface</title>
<path fill="none" stroke="black" d="M412.67,-284C436.16,-284 462.33,-284 487.33,-284"/>
<polygon fill="black" stroke="black" points="487.21,-287.5 497.21,-284 487.21,-280.5 487.21,-287.5"/>
<text text-anchor="middle" x="455.62" y="-285.75" font-family="Helvetica,sans-Serif" font-size="10.00">calls</text>
</g>
<!-- Postgres_Repo&#45;&gt;Repo_Interface -->
<g id="edge10" class="edge">
<title>Postgres_Repo&#45;&gt;Repo_Interface</title>
<path fill="none" stroke="black" stroke-dasharray="5,2" d="M393.46,-152.39C399.99,-155.05 406.45,-157.93 412.5,-161 468.11,-189.18 526.9,-231.54 562.13,-258.47"/>
<text text-anchor="middle" x="455.62" y="-202.22" font-family="Helvetica,sans-Serif" font-size="10.00">implements</text>
</g>
<!-- Database -->
<g id="node11" class="node">
<title>Database</title>
<path fill="#cfd8dc" stroke="black" d="M640.57,-86.73C640.57,-88.53 620.35,-90 595.45,-90 570.55,-90 550.32,-88.53 550.32,-86.73 550.32,-86.73 550.32,-57.27 550.32,-57.27 550.32,-55.47 570.55,-54 595.45,-54 620.35,-54 640.57,-55.47 640.57,-57.27 640.57,-57.27 640.57,-86.73 640.57,-86.73"/>
<path fill="none" stroke="black" d="M640.57,-86.73C640.57,-84.92 620.35,-83.45 595.45,-83.45 570.55,-83.45 550.32,-84.92 550.32,-86.73"/>
<text text-anchor="middle" x="595.45" y="-66.2" font-family="Helvetica,sans-Serif" font-size="14.00">PostgreSQL</text>
</g>
<!-- Postgres_Repo&#45;&gt;Database -->
<g id="edge12" class="edge">
<title>Postgres_Repo&#45;&gt;Database</title>
<path fill="none" stroke="black" d="M402.27,-117.05C444.85,-107.07 499.01,-94.37 538.97,-85"/>
<polygon fill="black" stroke="black" points="539.7,-88.43 548.64,-82.74 538.1,-81.61 539.7,-88.43"/>
<text text-anchor="middle" x="455.62" y="-111.51" font-family="Helvetica,sans-Serif" font-size="10.00">SQL</text>
</g>
<!-- Memory_Repo -->
<g id="node8" class="node">
<title>Memory_Repo</title>
<polygon fill="#ffe0b2" stroke="black" points="400.5,-208 266,-208 266,-170 400.5,-170 400.5,-208"/>
<text text-anchor="middle" x="333.25" y="-190.7" font-family="Helvetica,sans-Serif" font-size="14.00">Memory Repository</text>
<text text-anchor="middle" x="333.25" y="-175.7" font-family="Helvetica,sans-Serif" font-size="14.00">(Driven Adapter)</text>
</g>
<!-- Memory_Repo&#45;&gt;Repo_Interface -->
<g id="edge11" class="edge">
<title>Memory_Repo&#45;&gt;Repo_Interface</title>
<path fill="none" stroke="black" stroke-dasharray="5,2" d="M387.53,-208.45C430.65,-224.2 491.3,-246.34 535.8,-262.59"/>
<text text-anchor="middle" x="455.62" y="-243.94" font-family="Helvetica,sans-Serif" font-size="10.00">implements</text>
</g>
</g>
</svg>
